<svg width="2rem" height="2rem" xmlns="http://www.w3.org/2000/svg" viewBox="0 0 179.79 215.6"><defs><style>.cls-1{fill:#1e77a5;}</style></defs><g id="Layer_2" data-name="Layer 2"><g id="Layer_1-2" data-name="Layer 1"><path class="cls-1" d="M88.3,215.3a4.37,4.37,0,0,0,1.6.3,4.45,4.45,0,0,0,1.6-.3A139,139,0,0,0,179.79,85.85V4.38A4.38,4.38,0,0,0,175.41,0H4.38A4.38,4.38,0,0,0,0,4.38V85.85A139,139,0,0,0,88.3,215.3Zm1.6-8.79A130.84,130.84,0,0,1,47,178.24c8.75-2.91,24.53-9.35,43.23-22.43C113.41,139.61,145.17,110,171,58.59V85.85A129.5,129.5,0,0,1,89.9,206.51ZM171,38c-26.12,59.94-60.82,93.1-85.38,110.38-21.4,15-39,21-45.29,22.77a128.78,128.78,0,0,1-22.8-37.86c7.48-2.31,23-8.17,41.78-21.27,23.29-16.29,56-47.38,80.8-103.22H171ZM8.76,8.76H130.54c-23.63,51.53-54,80.44-75.8,95.74C36.56,117.29,21.37,122.9,14.68,125A131.22,131.22,0,0,1,8.76,85.85Z"/><path class="cls-1" d="M41.77,63.46a4.36,4.36,0,0,0,6.19,0L69.44,42a4.38,4.38,0,0,0-6.19-6.19L44.86,54.17l-9.79-9.79a4.38,4.38,0,0,0-6.19,6.19Z"/></g></g></svg>