<svg viewBox="0 0 18 18" fill="none" xmlns="http://www.w3.org/2000/svg" width="1rem" height="1rem">
<path d="M17.49 13.8067C17.4483 13.5487 17.2865 13.3283 17.0443 13.1973L13.4605 11.0858L13.431 11.0693C13.2808 10.994 13.1148 10.9555 12.9468 10.9568C12.6465 10.9568 12.3598 11.0705 12.1608 11.27L11.103 12.3282C11.0578 12.3712 10.9103 12.4335 10.8655 12.4357C10.8533 12.4347 9.63479 12.347 7.39154 10.1035C5.15229 7.86475 5.05729 6.6425 5.05654 6.6425C5.05779 6.58 5.11929 6.433 5.16304 6.3875L6.06504 5.48575C6.38279 5.16725 6.47804 4.63925 6.28954 4.23025L4.29754 0.482C4.15279 0.184 3.87154 0 3.55954 0C3.33879 0 3.12579 0.0915 2.95929 0.25775L0.500542 2.711C0.264792 2.9455 0.0617916 3.3555 0.0175416 3.6855C-0.0039584 3.84325 -0.440208 7.60875 4.72229 12.772C9.10504 17.1542 12.5225 17.4947 13.4663 17.4947C13.5812 17.4962 13.6961 17.4903 13.8103 17.477C14.1393 17.433 14.5488 17.2305 14.783 16.9957L17.2398 14.5392C17.4403 14.3377 17.5318 14.0715 17.49 13.8067V13.8067Z" fill="#1E77A5"/>
</svg>
