<svg width="72" height="72" viewBox="0 0 72 72" fill="none" xmlns="http://www.w3.org/2000/svg">
<circle cx="36" cy="36" r="36" fill="url(#paint0_linear)"/>
<path d="M40 44.5605H33C32.0375 44.5605 31.25 43.8237 31.25 42.9232V41.2858H19.0175L19 47.8353C19 49.6527 20.5575 51.11 22.5 51.11H50.5C52.425 51.11 54 49.6364 54 47.8353V41.2858H41.75V42.9232C41.75 43.8237 40.9625 44.5605 40 44.5605ZM50.5 26.5495H45.25V23.2747C45.25 21.4736 43.675 20 41.75 20H31.25C29.325 20 27.75 21.4736 27.75 23.2747V26.5495H22.5C20.575 26.5495 19 28.0231 19 29.8242V38.0111H31.25V36.3737C31.25 35.4731 32.0375 34.7363 33 34.7363H40C40.9625 34.7363 41.75 35.4731 41.75 36.3737V38.0111H54V29.8242C54 28.0231 52.425 26.5495 50.5 26.5495ZM41.75 26.5495H31.25V23.2747H41.75V26.5495ZM34.75 38.0111H38.25V41.2858H34.75V38.0111Z" fill="white" fill-opacity="0.95"/>
<defs>
<linearGradient id="paint0_linear" x1="36" y1="18.5143" x2="118.286" y2="115.714" gradientUnits="userSpaceOnUse">
<stop stop-color="#6AF2D8" stop-opacity="0.7"/>
<stop offset="0.604167" stop-color="#1E77A5" stop-opacity="0.75"/>
</linearGradient>
</defs>
</svg>
