<svg width="72" height="72" viewBox="0 0 72 72" fill="none" xmlns="http://www.w3.org/2000/svg">
<circle cx="36" cy="36" r="36" fill="url(#paint0_linear)"/>
<path d="M52.5417 31.6659C52.9284 31.6659 53.2994 31.5293 53.5729 31.2862C53.8464 31.0431 54 30.7134 54 30.3696V26.4808C53.9999 26.2144 53.9074 25.9545 53.7352 25.7365C53.563 25.5185 53.3194 25.3529 53.0375 25.2623L36.9958 20.0772C36.6754 19.9743 36.3246 19.9743 36.0042 20.0772L19.9625 25.2623C19.6806 25.3529 19.437 25.5185 19.2648 25.7365C19.0926 25.9545 19.0001 26.2144 19 26.4808V30.3696C19 30.7134 19.1536 31.0431 19.4271 31.2862C19.7006 31.5293 20.0716 31.6659 20.4583 31.6659H21.9167V48.5175H19V51.11H54V48.5175H51.0833V31.6659H52.5417ZM21.9167 27.3882L36.5 22.6698L51.0833 27.3882V29.0734H21.9167V27.3882ZM39.4167 48.5175H33.5833V31.6659H39.4167V48.5175ZM24.8333 31.6659H30.6667V48.5175H24.8333V31.6659ZM48.1667 48.5175H42.3333V31.6659H48.1667V48.5175Z" fill="white" fill-opacity="0.95"/>
<defs>
<linearGradient id="paint0_linear" x1="36" y1="18.5143" x2="118.286" y2="115.714" gradientUnits="userSpaceOnUse">
<stop stop-color="#6AF2D8" stop-opacity="0.7"/>
<stop offset="0.604167" stop-color="#1E77A5" stop-opacity="0.75"/>
</linearGradient>
</defs>
</svg>
