<svg width="176" height="58" viewBox="0 0 176 58" fill="none" xmlns="http://www.w3.org/2000/svg">
<rect x="18.2433" y="1.59729" width="11.8533" height="53.34" transform="rotate(20 18.2433 1.59729)" fill="url(#paint0_linear)"/>
<rect x="48.8615" y="1" width="11.8533" height="53.34" transform="rotate(20 48.8615 1)" fill="url(#paint1_linear)"/>
<rect x="34.0449" y="1" width="11.8533" height="53.34" transform="rotate(20 34.0449 1)" fill="url(#paint2_linear)"/>
<path d="M79.4514 30.264V29.264H78.4514V30.264H79.4514ZM91.4034 30.264H92.4034V29.264H91.4034V30.264ZM91.4034 44.64L91.9928 45.4478L92.4034 45.1482V44.64H91.4034ZM85.7154 47.496L85.9992 48.4549L86.0041 48.4534L85.7154 47.496ZM71.5794 47.064L71.2191 47.9969L71.2247 47.999L71.5794 47.064ZM65.6274 43.344L64.9344 44.065L64.9344 44.065L65.6274 43.344ZM61.8114 37.704L62.7361 37.3232L62.7361 37.3232L61.8114 37.704ZM61.7394 23.4L60.8099 23.031L60.8076 23.0369L61.7394 23.4ZM65.4114 17.784L64.7079 17.0733L64.7079 17.0733L65.4114 17.784ZM71.1474 14.112L70.784 13.1804L70.7817 13.1812L71.1474 14.112ZM82.7394 13.152L82.5505 14.1341L82.5627 14.1363L82.7394 13.152ZM86.1954 14.112L85.8288 15.0425L85.8411 15.0472L86.1954 14.112ZM89.0994 15.552L89.6363 14.7083L89.6363 14.7083L89.0994 15.552ZM91.4994 17.4L92.3381 17.9445L92.7948 17.2412L92.1817 16.6689L91.4994 17.4ZM89.4114 20.616L88.5726 20.0715L88.5679 20.0787L88.5634 20.086L89.4114 20.616ZM88.1634 21.552L88.3771 22.5289L88.3771 22.5289L88.1634 21.552ZM86.4834 21.168L85.9619 22.0213L85.9656 22.0235L86.4834 21.168ZM84.7794 20.232L84.3115 21.1158L84.3268 21.1239L84.3425 21.1315L84.7794 20.232ZM83.0274 19.488L83.3436 18.5393L83.3436 18.5393L83.0274 19.488ZM70.6914 22.056L69.9504 21.3845L69.9446 21.3909L70.6914 22.056ZM68.5794 25.752L69.5249 26.0777L69.5249 26.0777L68.5794 25.752ZM68.6514 35.736L67.7099 36.073L67.711 36.0761L68.6514 35.736ZM70.9554 39.552L70.2318 40.2422L70.2318 40.2422L70.9554 39.552ZM74.5074 41.928L74.1397 42.858L74.1434 42.8594L74.5074 41.928ZM82.2114 42.408L82.4539 43.3782L82.4659 43.3751L82.2114 42.408ZM84.8754 41.448L85.2955 42.3555L85.8754 42.087V41.448H84.8754ZM84.8754 35.592H85.8754V34.592H84.8754V35.592ZM79.8354 35.232L79.1283 35.9391L79.1503 35.9612L79.1738 35.9818L79.8354 35.232ZM79.4514 31.264H91.4034V29.264H79.4514V31.264ZM90.4034 30.264V44.64H92.4034V30.264H90.4034ZM90.8139 43.8322C89.1249 45.0647 87.33 45.9646 85.4266 46.5386L86.0041 48.4534C88.1328 47.8114 90.1298 46.8073 91.9928 45.4478L90.8139 43.8322ZM85.4315 46.5371C83.5302 47.0999 81.5064 47.384 79.3554 47.384V49.384C81.6844 49.384 83.9005 49.0761 85.9992 48.4549L85.4315 46.5371ZM79.3554 47.384C76.5941 47.384 74.1247 46.9599 71.934 46.129L71.2247 47.999C73.6741 48.9281 76.3886 49.384 79.3554 49.384V47.384ZM71.9396 46.1312C69.7325 45.2787 67.8645 44.1072 66.3203 42.623L64.9344 44.065C66.6863 45.7488 68.7862 47.0573 71.2191 47.9968L71.9396 46.1312ZM66.3203 42.623C64.7753 41.138 63.5808 39.3749 62.7361 37.3232L60.8867 38.0847C61.8339 40.3851 63.1834 42.382 64.9344 44.065L66.3203 42.623ZM62.7361 37.3232C61.8943 35.279 61.4674 33.0338 61.4674 30.576H59.4674C59.4674 33.2702 59.9364 35.777 60.8867 38.0847L62.7361 37.3232ZM61.4674 30.576C61.4674 28.0778 61.8732 25.8106 62.6711 23.7631L60.8076 23.0369C59.9096 25.3414 59.4674 27.8582 59.4674 30.576H61.4674ZM62.6688 23.769C63.4845 21.7147 64.6339 19.9607 66.1149 18.4947L64.7079 17.0733C63.0209 18.7433 61.7223 20.7333 60.81 23.031L62.6688 23.769ZM66.1149 18.4947C67.5949 17.0296 69.3892 15.8771 71.513 15.0428L70.7817 13.1812C68.4255 14.1069 66.3959 15.4024 64.7079 17.0733L66.1149 18.4947ZM71.5108 15.0436C73.635 14.215 76.0293 13.792 78.7074 13.792V11.792C75.8174 11.792 73.1718 12.249 70.784 13.1804L71.5108 15.0436ZM78.7074 13.792C80.0922 13.792 81.3723 13.9074 82.5505 14.134L82.9282 12.17C81.6104 11.9166 80.2025 11.792 78.7074 11.792V13.792ZM82.5627 14.1363C83.7532 14.35 84.8409 14.6532 85.8289 15.0424L86.5619 13.1816C85.4379 12.7388 84.2215 12.402 82.916 12.1677L82.5627 14.1363ZM85.8411 15.0472C86.8385 15.4249 87.7446 15.8752 88.5625 16.3957L89.6363 14.7083C88.6941 14.1088 87.6642 13.5991 86.5496 13.1768L85.8411 15.0472ZM88.5625 16.3957C89.3937 16.9246 90.1445 17.5034 90.8171 18.1311L92.1817 16.6689C91.4142 15.9526 90.5651 15.2994 89.6363 14.7083L88.5625 16.3957ZM90.6606 16.8554L88.5726 20.0715L90.2501 21.1605L92.3381 17.9445L90.6606 16.8554ZM88.5634 20.086C88.3625 20.4075 88.1582 20.5295 87.9497 20.5751L88.3771 22.5289C89.1926 22.3505 89.8203 21.8485 90.2594 21.146L88.5634 20.086ZM87.9497 20.5751C87.7661 20.6153 87.4694 20.5959 87.0012 20.3125L85.9656 22.0235C86.7133 22.4761 87.5366 22.7127 88.3771 22.5289L87.9497 20.5751ZM87.0048 20.3147C86.4037 19.9473 85.8075 19.6196 85.2163 19.3325L84.3425 21.1315C84.8713 21.3883 85.4111 21.6847 85.9619 22.0213L87.0048 20.3147ZM85.2473 19.3482C84.6514 19.0327 84.0163 18.7636 83.3436 18.5393L82.7111 20.4367C83.2864 20.6284 83.8194 20.8552 84.3115 21.1158L85.2473 19.3482ZM83.3436 18.5393C82.6591 18.3111 81.9229 18.1388 81.1378 18.0194L80.8369 19.9966C81.5239 20.1011 82.1477 20.2489 82.7111 20.4367L83.3436 18.5393ZM81.1378 18.0194C80.3402 17.898 79.4401 17.84 78.4434 17.84V19.84C79.3666 19.84 80.1626 19.894 80.8369 19.9966L81.1378 18.0194ZM78.4434 17.84C76.7103 17.84 75.1104 18.1407 73.6588 18.7603L74.4439 20.5997C75.6164 20.0993 76.9444 19.84 78.4434 19.84V17.84ZM73.6588 18.7603C72.2185 19.375 70.9784 20.2501 69.9504 21.3845L71.4324 22.7275C72.2603 21.8139 73.2602 21.105 74.4439 20.5997L73.6588 18.7603ZM69.9446 21.3909C68.9353 22.5242 68.1682 23.875 67.6339 25.4263L69.5249 26.0777C69.9825 24.749 70.6235 23.6358 71.4381 22.7211L69.9446 21.3909ZM67.6339 25.4263C67.0964 26.9869 66.8354 28.7072 66.8354 30.576H68.8354C68.8354 28.8928 69.0704 27.3971 69.5249 26.0777L67.6339 25.4263ZM66.8354 30.576C66.8354 32.5897 67.1206 34.4265 67.7099 36.073L69.5929 35.399C69.0941 34.0055 68.8354 32.4023 68.8354 30.576H66.8354ZM67.711 36.0761C68.2968 37.6958 69.1337 39.091 70.2318 40.2422L71.679 38.8618C70.793 37.933 70.0939 36.7842 69.5918 35.3959L67.711 36.0761ZM70.2318 40.2422C71.3267 41.3901 72.6332 42.2624 74.1397 42.858L74.875 40.998C73.6296 40.5056 72.5681 39.7939 71.679 38.8618L70.2318 40.2422ZM74.1434 42.8594C75.6659 43.4544 77.3355 43.744 79.1394 43.744V41.744C77.5513 41.744 76.1328 41.4896 74.8714 40.9966L74.1434 42.8594ZM79.1394 43.744C80.3539 43.744 81.4619 43.6261 82.4539 43.3781L81.9688 41.4379C81.1688 41.6379 80.2288 41.744 79.1394 41.744V43.744ZM82.4659 43.3751C83.4353 43.12 84.3787 42.7799 85.2955 42.3555L84.4553 40.5405C83.6441 40.9161 82.8115 41.216 81.9569 41.4409L82.4659 43.3751ZM85.8754 41.448V35.592H83.8754V41.448H85.8754ZM84.8754 34.592H80.9394V36.592H84.8754V34.592ZM80.9394 34.592C80.6491 34.592 80.5399 34.52 80.497 34.4822L79.1738 35.9818C79.6749 36.424 80.3017 36.592 80.9394 36.592V34.592ZM80.5425 34.5249C80.4863 34.4687 80.4514 34.4086 80.4514 34.272H78.4514C78.4514 34.9034 78.6725 35.4833 79.1283 35.9391L80.5425 34.5249ZM80.4514 34.272V30.264H78.4514V34.272H80.4514ZM104.537 18.816V17.816H103.537V18.816H104.537ZM104.537 27.768H103.537V28.768H104.537V27.768ZM116.153 27.768H117.153V26.768H116.153V27.768ZM116.153 33.216V34.216H117.153V33.216H116.153ZM104.537 33.216V32.216H103.537V33.216H104.537ZM104.537 42.36H103.537V43.36H104.537V42.36ZM119.465 42.36H120.465V41.36H119.465V42.36ZM119.465 48V49H120.465V48H119.465ZM97.2886 48H96.2886V49H97.2886V48ZM97.2886 13.176V12.176H96.2886V13.176H97.2886ZM119.465 13.176H120.465V12.176H119.465V13.176ZM119.465 18.816V19.816H120.465V18.816H119.465ZM103.537 18.816V27.768H105.537V18.816H103.537ZM104.537 28.768H116.153V26.768H104.537V28.768ZM115.153 27.768V33.216H117.153V27.768H115.153ZM116.153 32.216H104.537V34.216H116.153V32.216ZM103.537 33.216V42.36H105.537V33.216H103.537ZM104.537 43.36H119.465V41.36H104.537V43.36ZM118.465 42.36V48H120.465V42.36H118.465ZM119.465 47H97.2886V49H119.465V47ZM98.2886 48V13.176H96.2886V48H98.2886ZM97.2886 14.176H119.465V12.176H97.2886V14.176ZM118.465 13.176V18.816H120.465V13.176H118.465ZM119.465 17.816H104.537V19.816H119.465V17.816ZM148.868 39.864L149.598 39.1802L149.595 39.1774L148.868 39.864ZM151.724 42.912L152.51 43.5298L153.041 42.8547L152.454 42.2282L151.724 42.912ZM146.468 46.992L146.063 46.0776L146.061 46.0788L146.468 46.992ZM131.996 47.064L131.6 47.9824L131.606 47.985L131.996 47.064ZM126.692 43.344L127.428 42.6673L127.428 42.6673L126.692 43.344ZM123.332 37.704L124.273 37.365L124.273 37.365L123.332 37.704ZM122.708 25.656L121.737 25.4181L121.735 25.4253L122.708 25.656ZM124.364 21.336L125.241 21.8171L125.241 21.8171L124.364 21.336ZM126.956 17.784L126.238 17.0878L126.233 17.0935L126.956 17.784ZM130.412 15.096L130.91 15.9629L130.919 15.9582L130.412 15.096ZM134.588 13.392L134.835 14.3609L134.842 14.3591L134.588 13.392ZM143.06 13.128L142.867 14.1091L142.869 14.1096L143.06 13.128ZM146.276 14.064L145.902 14.9914L145.902 14.9914L146.276 14.064ZM149.012 15.528L148.443 16.3502L148.452 16.3564L148.461 16.3625L149.012 15.528ZM151.292 17.376L152.099 17.9666L152.605 17.275L151.999 16.6689L151.292 17.376ZM148.868 20.688L148.061 20.0974L148.053 20.108L148.046 20.1188L148.868 20.688ZM148.316 21.24L147.735 20.4263L147.735 20.4263L148.316 21.24ZM146.228 21.072L145.65 21.888L145.658 21.8935L145.666 21.8989L146.228 21.072ZM144.788 20.16L144.273 21.0176L144.284 21.0238L144.788 20.16ZM142.652 19.248L142.347 20.2002L142.352 20.2018L142.652 19.248ZM135.404 19.632L135.802 20.5493L135.802 20.5493L135.404 19.632ZM132.26 21.936L131.507 21.2783L131.506 21.2792L132.26 21.936ZM130.244 25.608L131.194 25.9211L131.194 25.9211L130.244 25.608ZM130.292 35.592L129.347 35.9205L129.352 35.9329L130.292 35.592ZM132.428 39.288L131.681 39.9524L131.686 39.9589L132.428 39.288ZM135.596 41.592L135.193 42.5073L135.201 42.5105L135.208 42.5136L135.596 41.592ZM141.692 42.24L141.574 41.247L141.571 41.2474L141.692 42.24ZM143.54 41.832L143.224 40.8833L143.216 40.8861L143.54 41.832ZM145.148 41.088L144.637 40.2281L144.625 40.2354L145.148 41.088ZM146.684 39.936L146.051 39.162L146.031 39.178L146.012 39.195L146.684 39.936ZM147.236 39.576L147.683 40.4704L147.683 40.4704L147.236 39.576ZM147.86 40.432C147.988 40.432 148.06 40.4648 148.141 40.5506L149.595 39.1774C149.132 38.6872 148.532 38.432 147.86 38.432V40.432ZM148.138 40.5477L150.994 43.5957L152.454 42.2282L149.598 39.1802L148.138 40.5477ZM150.938 42.2942C149.631 43.9568 148.011 45.2154 146.063 46.0776L146.873 47.9064C149.117 46.9126 151.001 45.4512 152.51 43.5298L150.938 42.2942ZM146.061 46.0788C144.138 46.9366 141.803 47.384 139.028 47.384V49.384C142.013 49.384 144.638 48.9034 146.875 47.9052L146.061 46.0788ZM139.028 47.384C136.533 47.384 134.325 46.9634 132.386 46.143L131.606 47.985C133.827 48.9246 136.307 49.384 139.028 49.384V47.384ZM132.392 46.1456C130.434 45.3023 128.784 44.1422 127.428 42.6673L125.956 44.0207C127.512 45.7138 129.398 47.0337 131.6 47.9824L132.392 46.1456ZM127.428 42.6673C126.069 41.1883 125.015 39.4255 124.273 37.365L122.391 38.043C123.217 40.3345 124.403 42.3317 125.956 44.0207L127.428 42.6673ZM124.273 37.365C123.532 35.3094 123.156 33.0495 123.156 30.576H121.156C121.156 33.2545 121.564 35.7466 122.391 38.043L124.273 37.365ZM123.156 30.576C123.156 28.9193 123.332 27.3571 123.681 25.8867L121.735 25.4253C121.348 27.0589 121.156 28.7767 121.156 30.576H123.156ZM123.679 25.8939C124.044 24.4041 124.566 23.0467 125.241 21.8171L123.487 20.8549C122.722 22.2493 122.14 23.7719 121.737 25.4181L123.679 25.8939ZM125.241 21.8171C125.92 20.5793 126.733 19.4661 127.679 18.4745L126.233 17.0935C125.163 18.2139 124.248 19.4687 123.487 20.8549L125.241 21.8171ZM127.674 18.4801C128.633 17.4913 129.711 16.6527 130.91 15.9629L129.914 14.2291C128.553 15.0113 127.327 15.9647 126.238 17.0879L127.674 18.4801ZM130.919 15.9582C132.114 15.2559 133.418 14.7228 134.835 14.3609L134.341 12.4231C132.75 12.8292 131.27 13.4321 129.905 14.2338L130.919 15.9582ZM134.842 14.3591C136.272 13.9828 137.802 13.792 139.436 13.792V11.792C137.646 11.792 135.944 12.0012 134.334 12.4249L134.842 14.3591ZM139.436 13.792C140.658 13.792 141.801 13.8989 142.867 14.1091L143.253 12.1469C142.047 11.9091 140.774 11.792 139.436 11.792V13.792ZM142.869 14.1096C143.964 14.3226 144.975 14.6175 145.902 14.9914L146.65 13.1366C145.593 12.7105 144.46 12.3814 143.251 12.1464L142.869 14.1096ZM145.902 14.9914C146.829 15.3653 147.675 15.8187 148.443 16.3502L149.581 14.7058C148.685 14.0853 147.707 13.5627 146.65 13.1366L145.902 14.9914ZM148.461 16.3625C149.257 16.8879 149.964 17.4619 150.585 18.0831L151.999 16.6689C151.276 15.9461 150.463 15.2881 149.563 14.6935L148.461 16.3625ZM150.485 16.7854L148.061 20.0974L149.675 21.2786L152.099 17.9666L150.485 16.7854ZM148.046 20.1188C147.973 20.224 147.873 20.3274 147.735 20.4263L148.897 22.0537C149.207 21.8326 149.475 21.568 149.69 21.2572L148.046 20.1188ZM147.735 20.4263C147.734 20.4265 147.717 20.4395 147.666 20.4529C147.613 20.4669 147.528 20.48 147.404 20.48V22.48C147.916 22.48 148.448 22.3743 148.897 22.0537L147.735 20.4263ZM147.404 20.48C147.267 20.48 147.068 20.4336 146.79 20.2451L145.666 21.8989C146.188 22.2544 146.773 22.48 147.404 22.48V20.48ZM146.806 20.256C146.39 19.9616 145.884 19.6415 145.292 19.2962L144.284 21.0238C144.844 21.3505 145.298 21.6384 145.65 21.888L146.806 20.256ZM145.302 19.3025C144.655 18.9139 143.865 18.5814 142.952 18.2941L142.352 20.2018C143.167 20.4586 143.801 20.7341 144.274 21.0175L145.302 19.3025ZM142.957 18.2958C141.976 17.981 140.783 17.84 139.412 17.84V19.84C140.665 19.84 141.632 19.971 142.347 20.2002L142.957 18.2958ZM139.412 17.84C137.833 17.84 136.359 18.127 135.006 18.7147L135.802 20.5493C136.881 20.081 138.079 19.84 139.412 19.84V17.84ZM135.006 18.7147C133.652 19.3024 132.483 20.1596 131.507 21.2783L133.013 22.5937C133.797 21.6964 134.724 21.0176 135.802 20.5493L135.006 18.7147ZM131.506 21.2792C130.541 22.3868 129.809 23.7331 129.294 25.2949L131.194 25.9211C131.639 24.5709 132.251 23.4692 133.014 22.5928L131.506 21.2792ZM129.294 25.2949C128.775 26.8706 128.524 28.6353 128.524 30.576H130.524C130.524 28.8047 130.753 27.2574 131.194 25.9211L129.294 25.2949ZM128.524 30.576C128.524 32.538 128.792 34.3241 129.348 35.9205L131.236 35.2635C130.768 33.9159 130.524 32.358 130.524 30.576H128.524ZM129.352 35.9329C129.917 37.4905 130.689 38.8368 131.681 39.9524L133.175 38.6236C132.375 37.7232 131.723 36.6055 131.232 35.2511L129.352 35.9329ZM131.686 39.9589C132.689 41.0674 133.86 41.9205 135.193 42.5073L135.999 40.6767C134.932 40.2075 133.991 39.5246 133.17 38.6171L131.686 39.9589ZM135.208 42.5136C136.552 43.0796 137.981 43.36 139.484 43.36V41.36C138.235 41.36 137.072 41.1284 135.984 40.6704L135.208 42.5136ZM139.484 43.36C140.331 43.36 141.109 43.3185 141.813 43.2326L141.571 41.2474C140.963 41.3215 140.269 41.36 139.484 41.36V43.36ZM141.81 43.233C142.543 43.1458 143.229 42.9958 143.864 42.7779L143.216 40.8861C142.731 41.0521 142.185 41.1742 141.574 41.247L141.81 43.233ZM143.856 42.7807C144.501 42.5657 145.107 42.2861 145.671 41.9406L144.625 40.2354C144.197 40.4979 143.731 40.7143 143.224 40.8833L143.856 42.7807ZM145.659 41.9479C146.236 41.6048 146.802 41.1789 147.356 40.677L146.012 39.195C145.542 39.6211 145.084 39.9632 144.637 40.2281L145.659 41.9479ZM147.317 40.71C147.439 40.6101 147.561 40.5314 147.683 40.4704L146.789 38.6816C146.527 38.8126 146.281 38.9739 146.051 39.162L147.317 40.71ZM147.683 40.4704C147.73 40.4469 147.784 40.432 147.86 40.432V38.432C147.488 38.432 147.126 38.5131 146.789 38.6816L147.683 40.4704Z" fill="white"/>
<defs>
<linearGradient id="paint0_linear" x1="24.17" y1="1.59729" x2="24.17" y2="54.9373" gradientUnits="userSpaceOnUse">
<stop stop-color="#6AF2D8"/>
<stop offset="1" stop-color="#1E77A5" stop-opacity="0.5"/>
</linearGradient>
<linearGradient id="paint1_linear" x1="54.7882" y1="1" x2="54.7882" y2="54.34" gradientUnits="userSpaceOnUse">
<stop stop-color="#6AF2D8" stop-opacity="0.25"/>
<stop offset="1" stop-color="#1E77A5" stop-opacity="0.1"/>
</linearGradient>
<linearGradient id="paint2_linear" x1="39.9715" y1="1" x2="39.9715" y2="54.34" gradientUnits="userSpaceOnUse">
<stop stop-color="#6AF2D8" stop-opacity="0.5"/>
<stop offset="1" stop-color="#1E77A5" stop-opacity="0.25"/>
</linearGradient>
</defs>
</svg>
